<svg id="Layer_1" xmlns="http://www.w3.org/2000/svg" viewBox="0 0 129.4399414 26.0004883"><style>.st0{fill:#fff}</style><path class="st0" d="M10.5678101 18.5003052L17.4318237 13.0002441 10.5678101 7.5001221z"/><path class="st0" d="M13 0C5.831543 0 0 5.831543 0 13s5.831543 13.0004883 13 13.0004883S26 20.168457 26 13 20.168457 0 13 0zM13 24.0004883C6.9345703 24.0004883 2 19.065918 2 13 2 6.9345703 6.9345703 2 13 2s11 4.9345703 11 11C24 19.065918 19.0654297 24.0004883 13 24.0004883zM34.4501953 21.0136719L37.4150391 21.0136719 37.4150391 13.8066406 44.2822266 13.8066406 44.2822266 11.4160156 37.4150391 11.4160156 37.4150391 6.3417969 45.2900391 6.3417969 45.2900391 3.9511719 34.4501953 3.9511719zM49.9985352 3.9511719L47.0336914 3.9511719 47.0336914 21.0136719 57.7446289 21.0136719 57.7446289 18.6230469 49.9985352 18.6230469zM63.015625 17.2988281L58.7265625 3.9511719 55.4804688 3.9511719 61.5976562 21.0136719 64.46875 21.0136719 70.609375 3.9511719 67.3515625 3.9511719zM79.1972656 14.2753906c1.09375-1.1875 1.8808594-2.2480469 2.3613281-3.1816406s.7207031-1.8261719.7207031-2.6777344c0-1.46875-.4785156-2.6191406-1.4355469-3.4511719s-2.2636719-1.2480469-3.9199219-1.2480469c-1.1484375 0-2.1621094.2304688-3.0410156.6914062S72.328125 5.515625 71.8554688 6.3476562s-.7089844 1.7675781-.7089844 2.8066406h2.8476562c0-.9765625.2539062-1.7460938.7617188-2.3085938s1.2226562-.84375 2.1445312-.84375c.7734375 0 1.3886719.25 1.8457031.75s.6855469 1.15625.6855469 1.96875c0 .6171875-.1738281 1.2324219-.5214844 1.8457031s-.9316406 1.3769531-1.7519531 2.2910156l-5.6835938 6.1992188v1.9570312h11.4726562v-2.2734375h-7.921875L79.1972656 14.2753906zM93.597168 19.0097656L87.3041992 3.9511719 85.394043 3.9511719 85.394043 21.0136719 86.8354492 21.0136719 86.8354492 13.5371094 86.7182617 6.0253906 93.0463867 21.0136719 94.159668 21.0136719 100.5112305 5.9667969 100.394043 13.5839844 100.394043 21.0136719 101.8354492 21.0136719 101.8354492 3.9511719 99.9135742 3.9511719zM111.3720703 3.9511719h-5.8125v17.0625h1.4414062v-6.9492188h4.3359375c1.875 0 3.3066406-.4355469 4.2949219-1.3066406s1.4824219-2.1074219 1.4824219-3.7089844c0-1.5859375-.5136719-2.8320312-1.5410156-3.7382812S113.1455078 3.9511719 111.3720703 3.9511719zM114.5712891 11.8481445c-.734375.6650391-1.8007812.9975586-3.1992188.9975586h-4.3710938V5.1699219h4.4648438c1.34375.015625 2.3808594.3735352 3.1113281 1.0737305.7304688.7006836 1.0957031 1.6411133 1.0957031 2.8227539C115.6728516 10.2558594 115.3056641 11.1831055 114.5712891 11.8481445zM128.6196289 13.8007812c-.546875-.7226562-1.3515625-1.2324219-2.4140625-1.5292969.90625-.34375 1.6191406-.8613281 2.1386719-1.5527344s.7792969-1.4472656.7792969-2.2675781c0-1.46875-.4453125-2.625-1.3359375-3.46875s-2.109375-1.265625-3.65625-1.265625c-.9609375 0-1.8359375.1992188-2.625.5976562s-1.40625.9628906-1.8515625 1.6933594-.6679688 1.5371094-.6679688 2.4199219h1.40625c0-1.0546875.3496094-1.9042969 1.0488281-2.5488281s1.5957031-.9667969 2.6894531-.9667969c1.15625 0 2.0429688.3085938 2.6601562.9257812s.9257812 1.4726562.9257812 2.5664062c0 .6484375-.1582031 1.2207031-.4746094 1.7167969s-.7753906.8867188-1.3769531 1.171875-1.3046875.4277344-2.109375.4277344h-1.453125v1.1953125h1.40625c1.421875 0 2.4980469.3007812 3.2285156.9023438s1.0957031 1.4726562 1.0957031 2.6132812c0 1.1796875-.3378906 2.0800781-1.0136719 2.7011719s-1.6191406.9316406-2.8300781.9316406c-1.1875 0-2.1601562-.3417969-2.9179688-1.0253906s-1.1367188-1.5683594-1.1367188-2.6542969h-1.40625c0 .96875.2324219 1.8183594.6972656 2.5488281s1.1210938 1.2988281 1.96875 1.7050781 1.7792969.609375 2.7949219.609375c1.59375 0 2.8671875-.4453125 3.8203125-1.3359375s1.4296875-2.0664062 1.4296875-3.5273438C129.4399414 15.3847656 129.1665039 14.5234375 128.6196289 13.8007812z"/></svg>